<mxfile host="app.diagrams.net" agent="Mozilla/5.0 (Macintosh; Intel Mac OS X 10_15_7) AppleWebKit/605.1.15 (KHTML, like Gecko) Version/18.5 Safari/605.1.15" version="27.1.3">
  <diagram name="Page-1" id="mcOuH7iONtjyaMAI37Ni">
    <mxGraphModel dx="1584" dy="1407" grid="1" gridSize="10" guides="1" tooltips="1" connect="1" arrows="1" fold="1" page="1" pageScale="1" pageWidth="1169" pageHeight="827" math="0" shadow="0">
      <root>
        <mxCell id="0" />
        <mxCell id="1" parent="0" />
        <mxCell id="HHDmBZZF9b4SMVAAgY-t-6" style="edgeStyle=orthogonalEdgeStyle;rounded=0;orthogonalLoop=1;jettySize=auto;html=1;entryX=0.5;entryY=0;entryDx=0;entryDy=0;" edge="1" parent="1" source="HHDmBZZF9b4SMVAAgY-t-1" target="HHDmBZZF9b4SMVAAgY-t-2">
          <mxGeometry relative="1" as="geometry">
            <mxPoint x="220" y="90" as="targetPoint" />
          </mxGeometry>
        </mxCell>
        <mxCell id="HHDmBZZF9b4SMVAAgY-t-1" value="Inicio" style="ellipse;whiteSpace=wrap;html=1;fontSize=14;" vertex="1" parent="1">
          <mxGeometry x="180" width="80" height="40" as="geometry" />
        </mxCell>
        <mxCell id="HHDmBZZF9b4SMVAAgY-t-17" style="edgeStyle=orthogonalEdgeStyle;rounded=0;orthogonalLoop=1;jettySize=auto;html=1;entryX=0.5;entryY=0;entryDx=0;entryDy=0;" edge="1" parent="1" source="HHDmBZZF9b4SMVAAgY-t-2" target="HHDmBZZF9b4SMVAAgY-t-16">
          <mxGeometry relative="1" as="geometry" />
        </mxCell>
        <mxCell id="HHDmBZZF9b4SMVAAgY-t-2" value="Diseño / Importación&lt;div&gt;red&lt;/div&gt;" style="rounded=1;whiteSpace=wrap;html=1;" vertex="1" parent="1">
          <mxGeometry x="160" y="80" width="120" height="40" as="geometry" />
        </mxCell>
        <mxCell id="HHDmBZZF9b4SMVAAgY-t-22" style="edgeStyle=orthogonalEdgeStyle;rounded=0;orthogonalLoop=1;jettySize=auto;html=1;entryX=0;entryY=0.5;entryDx=0;entryDy=0;exitX=0.5;exitY=1;exitDx=0;exitDy=0;" edge="1" parent="1" source="HHDmBZZF9b4SMVAAgY-t-4" target="HHDmBZZF9b4SMVAAgY-t-20">
          <mxGeometry relative="1" as="geometry" />
        </mxCell>
        <mxCell id="HHDmBZZF9b4SMVAAgY-t-4" value="&lt;div&gt;Importar modelos&lt;/div&gt;" style="rounded=1;whiteSpace=wrap;html=1;" vertex="1" parent="1">
          <mxGeometry x="60" y="200" width="120" height="40" as="geometry" />
        </mxCell>
        <mxCell id="HHDmBZZF9b4SMVAAgY-t-31" style="edgeStyle=orthogonalEdgeStyle;rounded=0;orthogonalLoop=1;jettySize=auto;html=1;entryX=0.5;entryY=0;entryDx=0;entryDy=0;" edge="1" parent="1" source="HHDmBZZF9b4SMVAAgY-t-12" target="HHDmBZZF9b4SMVAAgY-t-25">
          <mxGeometry relative="1" as="geometry" />
        </mxCell>
        <mxCell id="HHDmBZZF9b4SMVAAgY-t-12" value="Configuración de la red" style="rounded=1;whiteSpace=wrap;html=1;" vertex="1" parent="1">
          <mxGeometry x="160" y="320" width="120" height="40" as="geometry" />
        </mxCell>
        <mxCell id="HHDmBZZF9b4SMVAAgY-t-21" style="edgeStyle=orthogonalEdgeStyle;rounded=0;orthogonalLoop=1;jettySize=auto;html=1;entryX=1;entryY=0.5;entryDx=0;entryDy=0;exitX=0.5;exitY=1;exitDx=0;exitDy=0;" edge="1" parent="1" source="HHDmBZZF9b4SMVAAgY-t-15" target="HHDmBZZF9b4SMVAAgY-t-20">
          <mxGeometry relative="1" as="geometry" />
        </mxCell>
        <mxCell id="HHDmBZZF9b4SMVAAgY-t-15" value="&lt;div&gt;Importar biblioteca externa&lt;/div&gt;" style="rounded=1;whiteSpace=wrap;html=1;" vertex="1" parent="1">
          <mxGeometry x="260" y="200" width="120" height="40" as="geometry" />
        </mxCell>
        <mxCell id="HHDmBZZF9b4SMVAAgY-t-19" style="edgeStyle=orthogonalEdgeStyle;rounded=0;orthogonalLoop=1;jettySize=auto;html=1;entryX=0.5;entryY=0;entryDx=0;entryDy=0;" edge="1" parent="1" source="HHDmBZZF9b4SMVAAgY-t-16" target="HHDmBZZF9b4SMVAAgY-t-15">
          <mxGeometry relative="1" as="geometry" />
        </mxCell>
        <mxCell id="HHDmBZZF9b4SMVAAgY-t-16" value="" style="ellipse;whiteSpace=wrap;html=1;" vertex="1" parent="1">
          <mxGeometry x="210" y="150" width="20" height="20" as="geometry" />
        </mxCell>
        <mxCell id="HHDmBZZF9b4SMVAAgY-t-18" style="edgeStyle=orthogonalEdgeStyle;rounded=0;orthogonalLoop=1;jettySize=auto;html=1;entryX=0.5;entryY=0;entryDx=0;entryDy=0;" edge="1" parent="1" source="HHDmBZZF9b4SMVAAgY-t-16" target="HHDmBZZF9b4SMVAAgY-t-4">
          <mxGeometry relative="1" as="geometry" />
        </mxCell>
        <mxCell id="HHDmBZZF9b4SMVAAgY-t-23" style="edgeStyle=orthogonalEdgeStyle;rounded=0;orthogonalLoop=1;jettySize=auto;html=1;entryX=0.5;entryY=1;entryDx=0;entryDy=0;startArrow=classic;startFill=1;" edge="1" parent="1" source="HHDmBZZF9b4SMVAAgY-t-20" target="HHDmBZZF9b4SMVAAgY-t-16">
          <mxGeometry relative="1" as="geometry" />
        </mxCell>
        <mxCell id="HHDmBZZF9b4SMVAAgY-t-30" style="edgeStyle=orthogonalEdgeStyle;rounded=0;orthogonalLoop=1;jettySize=auto;html=1;entryX=0.5;entryY=0;entryDx=0;entryDy=0;" edge="1" parent="1" source="HHDmBZZF9b4SMVAAgY-t-20" target="HHDmBZZF9b4SMVAAgY-t-12">
          <mxGeometry relative="1" as="geometry" />
        </mxCell>
        <mxCell id="HHDmBZZF9b4SMVAAgY-t-20" value="" style="ellipse;whiteSpace=wrap;html=1;" vertex="1" parent="1">
          <mxGeometry x="210" y="270" width="20" height="20" as="geometry" />
        </mxCell>
        <mxCell id="HHDmBZZF9b4SMVAAgY-t-32" style="edgeStyle=orthogonalEdgeStyle;rounded=0;orthogonalLoop=1;jettySize=auto;html=1;entryX=0.5;entryY=0;entryDx=0;entryDy=0;" edge="1" parent="1" source="HHDmBZZF9b4SMVAAgY-t-25" target="HHDmBZZF9b4SMVAAgY-t-33">
          <mxGeometry relative="1" as="geometry">
            <mxPoint x="220" y="490" as="targetPoint" />
          </mxGeometry>
        </mxCell>
        <mxCell id="HHDmBZZF9b4SMVAAgY-t-25" value="Simulación de tráfico" style="rounded=1;whiteSpace=wrap;html=1;" vertex="1" parent="1">
          <mxGeometry x="160" y="400" width="120" height="40" as="geometry" />
        </mxCell>
        <mxCell id="HHDmBZZF9b4SMVAAgY-t-36" style="edgeStyle=orthogonalEdgeStyle;rounded=0;orthogonalLoop=1;jettySize=auto;html=1;entryX=0.5;entryY=0;entryDx=0;entryDy=0;" edge="1" parent="1" source="HHDmBZZF9b4SMVAAgY-t-33" target="HHDmBZZF9b4SMVAAgY-t-35">
          <mxGeometry relative="1" as="geometry" />
        </mxCell>
        <mxCell id="HHDmBZZF9b4SMVAAgY-t-33" value="Transmisión y registro de flujo de paquetes" style="rounded=1;whiteSpace=wrap;html=1;" vertex="1" parent="1">
          <mxGeometry x="160" y="480" width="120" height="40" as="geometry" />
        </mxCell>
        <mxCell id="HHDmBZZF9b4SMVAAgY-t-39" style="edgeStyle=orthogonalEdgeStyle;rounded=0;orthogonalLoop=1;jettySize=auto;html=1;entryX=0.5;entryY=0;entryDx=0;entryDy=0;" edge="1" parent="1" source="HHDmBZZF9b4SMVAAgY-t-35" target="HHDmBZZF9b4SMVAAgY-t-37">
          <mxGeometry relative="1" as="geometry" />
        </mxCell>
        <mxCell id="HHDmBZZF9b4SMVAAgY-t-40" value="SI" style="edgeLabel;html=1;align=center;verticalAlign=middle;resizable=0;points=[];" vertex="1" connectable="0" parent="HHDmBZZF9b4SMVAAgY-t-39">
          <mxGeometry x="-0.21" y="2" relative="1" as="geometry">
            <mxPoint as="offset" />
          </mxGeometry>
        </mxCell>
        <mxCell id="HHDmBZZF9b4SMVAAgY-t-46" style="edgeStyle=orthogonalEdgeStyle;rounded=0;orthogonalLoop=1;jettySize=auto;html=1;entryX=1;entryY=0.5;entryDx=0;entryDy=0;exitX=1;exitY=0.5;exitDx=0;exitDy=0;" edge="1" parent="1" source="HHDmBZZF9b4SMVAAgY-t-35" target="HHDmBZZF9b4SMVAAgY-t-44">
          <mxGeometry relative="1" as="geometry">
            <Array as="points">
              <mxPoint x="320" y="600" />
              <mxPoint x="320" y="800" />
            </Array>
          </mxGeometry>
        </mxCell>
        <mxCell id="HHDmBZZF9b4SMVAAgY-t-47" value="NO" style="edgeLabel;html=1;align=center;verticalAlign=middle;resizable=0;points=[];" vertex="1" connectable="0" parent="HHDmBZZF9b4SMVAAgY-t-46">
          <mxGeometry x="0.0785" y="4" relative="1" as="geometry">
            <mxPoint x="-4" y="-13" as="offset" />
          </mxGeometry>
        </mxCell>
        <mxCell id="HHDmBZZF9b4SMVAAgY-t-35" value="Modelo activado" style="rhombus;whiteSpace=wrap;html=1;" vertex="1" parent="1">
          <mxGeometry x="180" y="560" width="80" height="80" as="geometry" />
        </mxCell>
        <mxCell id="HHDmBZZF9b4SMVAAgY-t-45" style="edgeStyle=orthogonalEdgeStyle;rounded=0;orthogonalLoop=1;jettySize=auto;html=1;entryX=0.5;entryY=0;entryDx=0;entryDy=0;" edge="1" parent="1" source="HHDmBZZF9b4SMVAAgY-t-37" target="HHDmBZZF9b4SMVAAgY-t-44">
          <mxGeometry relative="1" as="geometry" />
        </mxCell>
        <mxCell id="HHDmBZZF9b4SMVAAgY-t-37" value="Mostrar predicción" style="rounded=1;whiteSpace=wrap;html=1;" vertex="1" parent="1">
          <mxGeometry x="160" y="680" width="120" height="40" as="geometry" />
        </mxCell>
        <mxCell id="HHDmBZZF9b4SMVAAgY-t-53" style="edgeStyle=orthogonalEdgeStyle;rounded=0;orthogonalLoop=1;jettySize=auto;html=1;entryX=0.5;entryY=0;entryDx=0;entryDy=0;" edge="1" parent="1" source="HHDmBZZF9b4SMVAAgY-t-42" target="HHDmBZZF9b4SMVAAgY-t-51">
          <mxGeometry relative="1" as="geometry" />
        </mxCell>
        <mxCell id="HHDmBZZF9b4SMVAAgY-t-42" value="Descargar .yaml" style="rounded=1;whiteSpace=wrap;html=1;" vertex="1" parent="1">
          <mxGeometry x="160" y="880" width="120" height="40" as="geometry" />
        </mxCell>
        <mxCell id="HHDmBZZF9b4SMVAAgY-t-50" style="edgeStyle=orthogonalEdgeStyle;rounded=0;orthogonalLoop=1;jettySize=auto;html=1;entryX=0;entryY=0.5;entryDx=0;entryDy=0;" edge="1" parent="1" source="HHDmBZZF9b4SMVAAgY-t-44" target="HHDmBZZF9b4SMVAAgY-t-51">
          <mxGeometry relative="1" as="geometry">
            <mxPoint x="120" y="1000" as="targetPoint" />
            <Array as="points">
              <mxPoint x="120" y="800" />
              <mxPoint x="120" y="960" />
            </Array>
          </mxGeometry>
        </mxCell>
        <mxCell id="HHDmBZZF9b4SMVAAgY-t-52" value="NO" style="edgeLabel;html=1;align=center;verticalAlign=middle;resizable=0;points=[];" vertex="1" connectable="0" parent="HHDmBZZF9b4SMVAAgY-t-50">
          <mxGeometry x="0.0036" relative="1" as="geometry">
            <mxPoint y="-21" as="offset" />
          </mxGeometry>
        </mxCell>
        <mxCell id="HHDmBZZF9b4SMVAAgY-t-44" value="Exportar" style="rhombus;whiteSpace=wrap;html=1;" vertex="1" parent="1">
          <mxGeometry x="180" y="760" width="80" height="80" as="geometry" />
        </mxCell>
        <mxCell id="HHDmBZZF9b4SMVAAgY-t-48" style="edgeStyle=orthogonalEdgeStyle;rounded=0;orthogonalLoop=1;jettySize=auto;html=1;entryX=0.5;entryY=0;entryDx=0;entryDy=0;exitX=0.5;exitY=1;exitDx=0;exitDy=0;" edge="1" parent="1" source="HHDmBZZF9b4SMVAAgY-t-44" target="HHDmBZZF9b4SMVAAgY-t-42">
          <mxGeometry relative="1" as="geometry">
            <mxPoint x="220" y="870" as="sourcePoint" />
            <mxPoint x="220" y="910" as="targetPoint" />
          </mxGeometry>
        </mxCell>
        <mxCell id="HHDmBZZF9b4SMVAAgY-t-49" value="SI" style="edgeLabel;html=1;align=center;verticalAlign=middle;resizable=0;points=[];" vertex="1" connectable="0" parent="HHDmBZZF9b4SMVAAgY-t-48">
          <mxGeometry x="-0.21" y="2" relative="1" as="geometry">
            <mxPoint as="offset" />
          </mxGeometry>
        </mxCell>
        <mxCell id="HHDmBZZF9b4SMVAAgY-t-57" style="edgeStyle=orthogonalEdgeStyle;rounded=0;orthogonalLoop=1;jettySize=auto;html=1;entryX=1;entryY=0;entryDx=0;entryDy=0;" edge="1" parent="1" source="HHDmBZZF9b4SMVAAgY-t-51" target="HHDmBZZF9b4SMVAAgY-t-16">
          <mxGeometry relative="1" as="geometry">
            <mxPoint x="450" y="130" as="targetPoint" />
            <Array as="points">
              <mxPoint x="420" y="960" />
              <mxPoint x="420" y="153" />
            </Array>
          </mxGeometry>
        </mxCell>
        <mxCell id="HHDmBZZF9b4SMVAAgY-t-58" style="edgeStyle=orthogonalEdgeStyle;rounded=0;orthogonalLoop=1;jettySize=auto;html=1;entryX=0.5;entryY=0;entryDx=0;entryDy=0;" edge="1" parent="1" source="HHDmBZZF9b4SMVAAgY-t-51" target="HHDmBZZF9b4SMVAAgY-t-55">
          <mxGeometry relative="1" as="geometry" />
        </mxCell>
        <mxCell id="HHDmBZZF9b4SMVAAgY-t-51" value="" style="ellipse;whiteSpace=wrap;html=1;" vertex="1" parent="1">
          <mxGeometry x="210" y="950" width="20" height="20" as="geometry" />
        </mxCell>
        <mxCell id="HHDmBZZF9b4SMVAAgY-t-55" value="Fin" style="rounded=1;whiteSpace=wrap;html=1;" vertex="1" parent="1">
          <mxGeometry x="160" y="1000" width="120" height="40" as="geometry" />
        </mxCell>
      </root>
    </mxGraphModel>
  </diagram>
</mxfile>
